<svg width="30" height="31" viewBox="0 0 30 31" fill="none" xmlns="http://www.w3.org/2000/svg">
<path fill-rule="evenodd" clip-rule="evenodd" d="M3 6.486C1.34315 6.486 0 7.91871 0 9.68603V12.3337C0 13.7468 0.869005 14.9927 2.13796 15.3988L13.2759 18.9629C14.4005 19.3228 15.5995 19.3228 16.7241 18.9629L27.862 15.3988C29.131 14.9927 30 13.7468 30 12.3337V9.68603C30 7.9187 28.6569 6.486 27 6.486H3ZM14.25 13.9435C14.25 13.5293 13.9142 13.1935 13.5 13.1935C13.0858 13.1935 12.75 13.5293 12.75 13.9435V17.0292C12.75 17.4434 13.0858 17.7792 13.5 17.7792C13.9142 17.7792 14.25 17.4434 14.25 17.0292V13.9435Z" fill="#00303F"/>
<path fill-rule="evenodd" clip-rule="evenodd" d="M0.125 17.0199V23.3999C0.125 27.5973 3.31497 31 7.25 31H22.75C26.685 31 29.875 27.5973 29.875 23.3999V17.0199C29.46 17.3096 29.0015 17.5398 28.5086 17.6975L17.3706 21.2617C15.8242 21.7565 14.1758 21.7565 12.6294 21.2617L1.49143 17.6975C0.99847 17.5398 0.54 17.3096 0.125 17.0199ZM0.217681 13.5309L15 16.2001L29.7823 13.5309C29.4485 14.4128 28.7541 15.1133 27.862 15.3987L16.7241 18.9629C15.5995 19.3228 14.4005 19.3228 13.2759 18.9629L2.13796 15.3987C1.24589 15.1133 0.551478 14.4128 0.217681 13.5309ZM14.9989 18.5999L14.9999 18.6001L14.9998 18.6002L14.9989 18.5999Z" fill="#00303F"/>
<path d="M20 6.48574V3C20 1.89543 19.1046 1 18 1H12C10.8954 1 10 1.89543 10 3L10 6.48574" stroke="#00303F" stroke-width="1.5"/>
</svg>
