<svg width="30" height="38" viewBox="0 0 30 38" fill="none" xmlns="http://www.w3.org/2000/svg">
<path fill-rule="evenodd" clip-rule="evenodd" d="M26.2634 30.2665C26.3389 30.2799 26.4144 30.2937 26.4899 30.3079L26.8694 30.3792C28.5219 30.6898 30.0003 29.0028 30.0003 26.8065V25.1304C30.0003 23.5596 29.2499 22.1585 28.1256 21.6302C26.8267 21.0199 25.4857 20.6224 24.1321 20.438C25.5446 21.8059 26.4206 24.0209 26.4206 26.4374V28.5184C26.4206 29.1228 26.366 29.7081 26.2634 30.2665ZM20.5381 18.2082C21.101 18.5195 21.7193 18.6915 22.3681 18.6915C24.9788 18.6915 27.0951 15.907 27.0951 12.4721C27.0951 9.03726 24.9788 6.25276 22.3681 6.25276C22.2908 6.25276 22.214 6.2552 22.1376 6.26003C22.6123 7.61432 22.8776 9.12647 22.8776 10.7216C22.8776 13.6519 21.9823 16.3021 20.5381 18.2082Z" fill="#00303F"/>
<path fill-rule="evenodd" clip-rule="evenodd" d="M3.7365 30.2666C3.66108 30.2799 3.5857 30.2937 3.51034 30.3079L3.13081 30.3792C1.47833 30.6898 -0.000109673 29.0028 -0.000109673 26.8065V25.1304C-0.000109673 23.5596 0.750376 22.1585 1.87466 21.6302C3.17343 21.0199 4.51425 20.6225 5.86777 20.438C4.45532 21.8059 3.57926 24.0209 3.57926 26.4374V28.5184C3.57926 29.1228 3.63387 29.7081 3.7365 30.2666ZM9.46191 18.2083C8.89909 18.5195 8.28085 18.6915 7.63208 18.6915C5.02144 18.6915 2.90509 15.907 2.90509 12.4721C2.90509 9.03726 5.02144 6.25276 7.63208 6.25276C7.70928 6.25276 7.78604 6.2552 7.86232 6.26001C7.38758 7.6143 7.12226 9.12646 7.12226 10.7216C7.12226 13.652 8.01763 16.3022 9.46191 18.2083Z" fill="#00303F"/>
<path fill-rule="evenodd" clip-rule="evenodd" d="M20.7956 10.7216C20.7956 6.45708 18.2146 3 15.0309 3C11.8471 3 9.26612 6.45708 9.26612 10.7216C9.26612 14.9861 11.8471 18.4432 15.0309 18.4432C18.2146 18.4432 20.7956 14.9861 20.7956 10.7216Z" fill="#00303F"/>
<path fill-rule="evenodd" clip-rule="evenodd" d="M8.00949 22.0918C12.55 19.9197 17.5118 19.9197 22.0522 22.0918C23.4233 22.7477 24.3386 24.4873 24.3386 26.4374V28.5184C24.3386 31.2452 22.5356 33.3397 20.5203 32.9541L20.0575 32.8656C16.7233 32.2276 13.3384 32.2276 10.0043 32.8656L9.54141 32.9541C7.52616 33.3397 5.72314 31.2452 5.72314 28.5184V26.4374C5.72314 24.4873 6.63839 22.7477 8.00949 22.0918Z" fill="#00303F"/>
</svg>
